<svg xmlns="http://www.w3.org/2000/svg" xmlns:xlink="http://www.w3.org/1999/xlink" width="34.007" height="21.031" viewBox="0 0 34.007 21.031">
  <defs>
    <linearGradient id="linear-gradient" x1="0.5" x2="0.5" y2="1" gradientUnits="objectBoundingBox">
      <stop offset="0" stop-color="#0077c8"/>
      <stop offset="1" stop-color="#60aadf"/>
    </linearGradient>
  </defs>
  <path id="Icon_awesome-audible" data-name="Icon awesome-audible" d="M34.007,11.62v2.869L17,25.116,0,14.494V11.625L17,22.252ZM23.672,15.445l2.5-1.562a11.019,11.019,0,0,0-18.348-.011h.016c.133-.122.271-.239.409-.356a10.612,10.612,0,0,1,15.42,1.929Zm-11.7,1a5.267,5.267,0,0,1,3.05-.994,5.712,5.712,0,0,1,4.591,2.529l2.412-1.509a6.136,6.136,0,0,0-10.053-.027ZM5.5,9.558a15.323,15.323,0,0,1,22.184,3.3l.037.053L30.319,11.3A15.9,15.9,0,0,0,3.688,11.29,18.7,18.7,0,0,1,5.5,9.558ZM30.319,11.3Z" transform="translate(0 -4.085)" fill="url(#linear-gradient)"/>
</svg>
