<svg xmlns="http://www.w3.org/2000/svg" xmlns:xlink="http://www.w3.org/1999/xlink" width="24.862" height="28.413" viewBox="0 0 24.862 28.413">
  <defs>
    <linearGradient id="linear-gradient" x1="0.5" x2="0.5" y2="1" gradientUnits="objectBoundingBox">
      <stop offset="0" stop-color="#0077c8"/>
      <stop offset="1" stop-color="#60aadf"/>
    </linearGradient>
  </defs>
  <path id="Icon_awesome-calendar-alt" data-name="Icon awesome-calendar-alt" d="M0,25.75a2.664,2.664,0,0,0,2.664,2.664H22.2a2.664,2.664,0,0,0,2.664-2.664V10.655H0ZM17.758,14.873a.668.668,0,0,1,.666-.666h2.22a.668.668,0,0,1,.666.666v2.22a.668.668,0,0,1-.666.666h-2.22a.668.668,0,0,1-.666-.666Zm0,7.1a.668.668,0,0,1,.666-.666h2.22a.668.668,0,0,1,.666.666V24.2a.668.668,0,0,1-.666.666h-2.22a.668.668,0,0,1-.666-.666Zm-7.1-7.1a.668.668,0,0,1,.666-.666h2.22a.668.668,0,0,1,.666.666v2.22a.668.668,0,0,1-.666.666h-2.22a.668.668,0,0,1-.666-.666Zm0,7.1a.668.668,0,0,1,.666-.666h2.22a.668.668,0,0,1,.666.666V24.2a.668.668,0,0,1-.666.666h-2.22a.668.668,0,0,1-.666-.666Zm-7.1-7.1a.668.668,0,0,1,.666-.666h2.22a.668.668,0,0,1,.666.666v2.22a.668.668,0,0,1-.666.666H4.218a.668.668,0,0,1-.666-.666Zm0,7.1a.668.668,0,0,1,.666-.666h2.22a.668.668,0,0,1,.666.666V24.2a.668.668,0,0,1-.666.666H4.218a.668.668,0,0,1-.666-.666ZM22.2,3.552H19.534V.888A.891.891,0,0,0,18.646,0H16.87a.891.891,0,0,0-.888.888V3.552h-7.1V.888A.891.891,0,0,0,7.991,0H6.215a.891.891,0,0,0-.888.888V3.552H2.664A2.664,2.664,0,0,0,0,6.215V8.879H24.862V6.215A2.664,2.664,0,0,0,22.2,3.552Z" fill="url(#linear-gradient)"/>
</svg>
