<svg xmlns="http://www.w3.org/2000/svg" width="150" height="150" viewBox="0 0 150 150">
  <g id="Group_895" data-name="Group 895" transform="translate(-1278 -1832)">
    <g id="Ellipse_38" data-name="Ellipse 38" transform="translate(1278 1832)" fill="#fff" stroke="#0077cb" stroke-width="3">
      <circle cx="75" cy="75" r="75" stroke="none"/>
      <circle cx="75" cy="75" r="73.5" fill="none"/>
    </g>
    <g id="bill" transform="translate(1273 1885)" opacity="0.5">
      <g id="Group_893" data-name="Group 893" transform="translate(64)">
        <path id="Path_626" data-name="Path 626" d="M96.184,9.277,87.172.265A.9.9,0,0,0,86.534,0H67.605A3.61,3.61,0,0,0,64,3.605V39.66a3.61,3.61,0,0,0,3.605,3.605H92.843a3.61,3.61,0,0,0,3.605-3.605V9.915A.9.9,0,0,0,96.184,9.277ZM72.112,12.619a2.7,2.7,0,0,1-.9-5.242V7.211a.9.9,0,1,1,1.8,0h.9a.9.9,0,0,1,0,1.8h-1.8a.9.9,0,0,0,0,1.8,2.7,2.7,0,0,1,.9,5.242v.166a.9.9,0,1,1-1.8,0h-.9a.9.9,0,1,1,0-1.8h1.8a.9.9,0,1,0,0-1.8Zm9.014,25.238H70.31a.9.9,0,1,1,0-1.8H81.126a.9.9,0,0,1,0,1.8Zm9.014-5.408H70.31a.9.9,0,0,1,0-1.8h19.83a.9.9,0,1,1,0,1.8Zm0-5.408H70.31a.9.9,0,0,1,0-1.8h19.83a.9.9,0,1,1,0,1.8Zm0-5.408H70.31a.9.9,0,0,1,0-1.8h19.83a.9.9,0,1,1,0,1.8Zm0-5.408H79.323a.9.9,0,0,1,0-1.8H90.139a.9.9,0,1,1,0,1.8Zm-.9-7.211a1.8,1.8,0,0,1-1.8-1.8V3.077l5.936,5.936Z" transform="translate(-64)"/>
      </g>
    </g>
  </g>
</svg>
