<svg xmlns="http://www.w3.org/2000/svg" width="30" height="30" viewBox="0 0 30 30">
  <g id="Group_772" data-name="Group 772" transform="translate(-135.762 -50)">
    <path id="Path_300" data-name="Path 300" d="M427.107,558.668q-.244.04-.49.073.246-.034.49-.073Zm0,0" transform="translate(-273.878 -478.922)" fill="#fff"/>
    <path id="Path_301" data-name="Path 301" d="M435.335,557.793l-.233.041.233-.041Zm0,0" transform="translate(-281.832 -478.114)" fill="#fff"/>
    <path id="Path_302" data-name="Path 302" d="M413.945,560.34q-.286.032-.574.057.288-.024.574-.057Zm0,0" transform="translate(-261.416 -480.467)" fill="#fff"/>
    <path id="Path_303" data-name="Path 303" d="M422.482,559.738l-.275.034.275-.034Zm0,0" transform="translate(-269.697 -479.911)" fill="#fff"/>
    <path id="Path_304" data-name="Path 304" d="M442.632,556.41l-.206.043.206-.043Zm0,0" transform="translate(-288.724 -476.836)" fill="#fff"/>
    <path id="Path_305" data-name="Path 305" d="M460.412,552.113l-.166.046.166-.046Zm0,0" transform="translate(-305.496 -472.867)" fill="#fff"/>
    <path id="Path_306" data-name="Path 306" d="M455,553.543l-.181.047.181-.047Zm0,0" transform="translate(-300.39 -474.188)" fill="#fff"/>
    <path id="Path_307" data-name="Path 307" d="M448.021,555.254l-.193.043.193-.043Zm0,0" transform="translate(-293.808 -475.769)" fill="#fff"/>
    <path id="Path_308" data-name="Path 308" d="M409.551,561.09l-.309.023.309-.023Zm0,0" transform="translate(-257.494 -481.159)" fill="#fff"/>
    <path id="Path_309" data-name="Path 309" d="M165.762,65a15,15,0,1,0-15,15c.088,0,.176,0,.264,0V68.32H147.8V64.564h3.223V61.8c0-3.205,1.957-4.95,4.816-4.95a26.515,26.515,0,0,1,2.889.148v3.35h-1.972c-1.555,0-1.857.739-1.857,1.824v2.392h3.719l-.485,3.756H154.9v11.1A15.008,15.008,0,0,0,165.762,65Zm0,0" fill="#fff"/>
    <path id="Path_310" data-name="Path 310" d="M401.265,561.43q-.3.02-.612.03.307-.01.612-.03Zm0,0" transform="translate(-249.445 -481.473)" fill="#fff"/>
    <path id="Path_311" data-name="Path 311" d="M396.59,561.836l-.324.008.324-.008Zm0,0" transform="translate(-245.279 -481.849)" fill="#fff"/>
  </g>
</svg>
