<svg xmlns="http://www.w3.org/2000/svg" xmlns:xlink="http://www.w3.org/1999/xlink" width="44.864" height="54.806" viewBox="0 0 44.864 54.806">
  <defs>
    <linearGradient id="linear-gradient" x1="0.5" x2="0.5" y2="1" gradientUnits="objectBoundingBox">
      <stop offset="0" stop-color="#0077c8"/>
      <stop offset="1" stop-color="#60aadf"/>
    </linearGradient>
  </defs>
  <path id="Icon_awesome-file-invoice-dollar" data-name="Icon awesome-file-invoice-dollar" d="M44.046,11.239,32.608.749A2.938,2.938,0,0,0,30.622,0h-.713V13.7H44.864v-.653A2.457,2.457,0,0,0,44.046,11.239ZM26.171,14.558V0H2.8A2.688,2.688,0,0,0,0,2.569V52.237a2.688,2.688,0,0,0,2.8,2.569H42.06a2.688,2.688,0,0,0,2.8-2.569V17.127H28.975A2.7,2.7,0,0,1,26.171,14.558ZM7.477,7.707a.9.9,0,0,1,.935-.856h9.347a.9.9,0,0,1,.935.856V9.42a.9.9,0,0,1-.935.856H8.412a.9.9,0,0,1-.935-.856Zm0,8.563V14.558a.9.9,0,0,1,.935-.856h9.347a.9.9,0,0,1,.935.856V16.27a.9.9,0,0,1-.935.856H8.412A.9.9,0,0,1,7.477,16.27ZM24.3,44.517V47.1a.9.9,0,0,1-.935.856H21.5a.9.9,0,0,1-.935-.856V44.5A7.079,7.079,0,0,1,16.9,43.284a.812.812,0,0,1-.067-1.3l1.373-1.2a1.027,1.027,0,0,1,1.184-.078,3,3,0,0,0,1.5.4h3.284a1.415,1.415,0,0,0,.354-2.775l-5.258-1.445a4.909,4.909,0,0,1-3.69-4.645,4.973,4.973,0,0,1,4.985-4.824V24.834a.9.9,0,0,1,.935-.856h1.869a.9.9,0,0,1,.935.856v2.6a7.069,7.069,0,0,1,3.665,1.215.812.812,0,0,1,.067,1.3l-1.373,1.2a1.027,1.027,0,0,1-1.184.078,2.994,2.994,0,0,0-1.5-.4H20.694A1.415,1.415,0,0,0,20.34,33.6L25.6,35.048a4.909,4.909,0,0,1,3.69,4.645A4.973,4.973,0,0,1,24.3,44.517Z" fill="url(#linear-gradient)"/>
</svg>
