<svg xmlns="http://www.w3.org/2000/svg" width="46.037" height="43.252" viewBox="0 0 46.037 43.252">
  <g id="search" transform="translate(0 -0.5)" opacity="0.5">
    <path id="Path_619" data-name="Path 619" d="M1.349,71.054H25.807A1.348,1.348,0,0,0,27.156,69.7V68.356H6.744A4.051,4.051,0,0,1,2.7,64.309V30.5H1.349A1.348,1.348,0,0,0,0,31.848V69.7a1.348,1.348,0,0,0,1.349,1.349Zm0,0" transform="translate(0 -27.302)"/>
    <path id="Path_620" data-name="Path 620" d="M242.012,16.592h7.3l-7.3-7.3Zm0,0" transform="translate(-220.251 -7.999)"/>
    <path id="Path_621" data-name="Path 621" d="M61.353.5A1.348,1.348,0,0,0,60,1.849V37.008a1.348,1.348,0,0,0,1.349,1.349H83.114a1.348,1.348,0,0,0,1.349-1.349V35.274a10.624,10.624,0,0,1-2.7.385,10.791,10.791,0,1,1,0-21.581,10.663,10.663,0,0,1,2.7.383V11.29H75.021a1.348,1.348,0,0,1-1.349-1.349V.5Zm0,0" transform="translate(-54.609)"/>
    <path id="Path_622" data-name="Path 622" d="M230.519,196.2a1.349,1.349,0,0,0-1.906,0l-1.923-1.923a8.131,8.131,0,1,0-1.907,1.908l1.923,1.923h0a1.349,1.349,0,0,0,0,1.908l7.679,7.678a2.7,2.7,0,1,0,3.815-3.814Zm0,0" transform="translate(-192.948 -164.733)"/>
  </g>
</svg>
