<svg xmlns="http://www.w3.org/2000/svg" width="30" height="30" viewBox="0 0 30 30">
  <g id="Group_770" data-name="Group 770" transform="translate(-140 -50)">
    <path id="Path_298" data-name="Path 298" d="M155,50a15,15,0,1,0,15,15,15,15,0,0,0-15-15Zm-4.359,22.676h-3.653V61.685h3.653Zm-1.826-12.491h-.024a2.087,2.087,0,1,1,.024,0Zm15,12.491h-3.653V66.8c0-1.478-.529-2.485-1.851-2.485a2,2,0,0,0-1.874,1.336,2.5,2.5,0,0,0-.12.892v6.138h-3.653s.048-9.96,0-10.991h3.653v1.556a3.627,3.627,0,0,1,3.292-1.814c2.4,0,4.206,1.571,4.206,4.947Zm0,0" fill="#fff"/>
  </g>
</svg>
