<svg xmlns="http://www.w3.org/2000/svg" width="42.93" height="42.93" viewBox="0 0 42.93 42.93">
  <g id="loan" opacity="0.5">
    <path id="Path_627" data-name="Path 627" d="M106.031,23.216a25.281,25.281,0,0,1,4.553-.174A15.557,15.557,0,0,1,114,.01a13.031,13.031,0,0,0-7.967,23.206Z" transform="translate(-92.626 -0.009)"/>
    <path id="Path_628" data-name="Path 628" d="M204.731,23.034h3.4a5.082,5.082,0,0,1,4.649,3.028A13.033,13.033,0,1,0,213.069,0C200.881,0,195.452,15.266,204.731,23.034Zm7.076-16.675V5.288a1.263,1.263,0,1,1,2.525,0V6.359a4.535,4.535,0,0,1,1.776.32h0a4.7,4.7,0,0,1,1.7,1.157,1.263,1.263,0,1,1-1.843,1.728,2.1,2.1,0,0,0-1.5-.678h-2.9a1.441,1.441,0,0,0,0,2.881h3.008a3.972,3.972,0,1,1-.242,7.938v1.071a1.263,1.263,0,1,1-2.525,0V19.706a4.722,4.722,0,0,1-3-.844,1.264,1.264,0,0,1,1.439-2.077,2.127,2.127,0,0,0,1.165.394h3.164a1.441,1.441,0,0,0,0-2.881h-3.008a3.972,3.972,0,1,1,.242-7.938Z" transform="translate(-183.212)"/>
    <path id="Path_629" data-name="Path 629" d="M42.109,309.584a2.8,2.8,0,0,0-3.97,0l-4.12,4.124a2.408,2.408,0,0,1-1.7.705H21.594a2.815,2.815,0,0,1,0-5.629H24.86a2.59,2.59,0,0,0,2.608-2.5,2.557,2.557,0,0,0-2.554-2.618H15.528a10.492,10.492,0,0,0-8.076,3.8L5.93,309.4a.421.421,0,0,1-.331.161H.842A.842.842,0,0,0,0,310.4v9.791a.842.842,0,0,0,.842.843h32.52a3.08,3.08,0,0,0,2.179-.9l6.567-6.574a2.813,2.813,0,0,0,0-3.973Z" transform="translate(0 -278.104)"/>
  </g>
</svg>
