<svg xmlns="http://www.w3.org/2000/svg" xmlns:xlink="http://www.w3.org/1999/xlink" width="165" height="168" viewBox="0 0 165 168">
  <defs>
    <linearGradient id="linear-gradient" x1="0.5" x2="0.5" y2="1" gradientUnits="objectBoundingBox">
      <stop offset="0" stop-color="#ecec36"/>
      <stop offset="1" stop-color="#f9ca2f"/>
    </linearGradient>
    <filter id="Ellipse_39" x="93" y="0" width="72" height="72" filterUnits="userSpaceOnUse">
      <feOffset dy="-3" input="SourceAlpha"/>
      <feGaussianBlur stdDeviation="5" result="blur"/>
      <feFlood flood-opacity="0.051"/>
      <feComposite operator="in" in2="blur"/>
      <feComposite in="SourceGraphic"/>
    </filter>
  </defs>
  <g id="Group_901" data-name="Group 901" transform="translate(-754 -1814)">
    <g id="Group_897" data-name="Group 897">
      <g id="Ellipse_38" data-name="Ellipse 38" transform="translate(754 1832)" fill="#fff" stroke="#0077cb" stroke-width="3" stroke-dasharray="5 0">
        <circle cx="75" cy="75" r="75" stroke="none"/>
        <circle cx="75" cy="75" r="73.5" fill="none"/>
      </g>
      <g id="search" transform="translate(789.937 1870.224)" opacity="0.5">
        <path id="Path_622" data-name="Path 622" d="M239.856,203.617a2.029,2.029,0,0,0-2.868,0l-2.894-2.894a12.234,12.234,0,1,0-2.87,2.87l2.893,2.893h0a2.03,2.03,0,0,0,0,2.871l11.553,11.552a4.058,4.058,0,0,0,5.74-5.739Zm0,0" transform="translate(-192.948 -164.733)"/>
      </g>
    </g>
    <g id="Group_900" data-name="Group 900" transform="translate(524)">
      <g transform="matrix(1, 0, 0, 1, 230, 1814)" filter="url(#Ellipse_39)">
        <circle id="Ellipse_39-2" data-name="Ellipse 39" cx="21" cy="21" r="21" transform="translate(108 18)" fill="url(#linear-gradient)"/>
      </g>
      <g id="Ellipse_41" data-name="Ellipse 41" transform="translate(351 1845)" fill="none" stroke="#fff" stroke-width="2.2">
        <circle cx="8" cy="8" r="8" stroke="none"/>
        <circle cx="8" cy="8" r="6.9" fill="none"/>
      </g>
    </g>
  </g>
</svg>
