<svg xmlns="http://www.w3.org/2000/svg" width="47.815" height="47.815" viewBox="0 0 47.815 47.815">
  <path id="Path_617" data-name="Path 617" d="M33.806,5.7h-11.3v16.81h-5.7a8.4,8.4,0,1,0-16.81,0v2.8H22.506v16.81h11.3v5.7H47.815v-14.1H33.806v5.6h-8.5V25.308h8.5v5.6H47.815V16.9H33.806v5.6h-8.5V8.5h8.5v5.6H47.815V0H33.806ZM37.6,38.326l1.811,1.811,4.613-4.613L46,37.505,39.41,44.1l-3.792-3.792Zm0-16.81,1.811,1.811,4.613-4.613L46,20.7,39.41,27.289,35.618,23.5Zm0-16.81L39.41,6.517,44.023,1.9,46,3.885,39.41,10.479,35.618,6.687Zm0,0"/>
</svg>
