<svg xmlns="http://www.w3.org/2000/svg" xmlns:xlink="http://www.w3.org/1999/xlink" width="165" height="168" viewBox="0 0 165 168">
  <defs>
    <linearGradient id="linear-gradient" x1="0.5" x2="0.5" y2="1" gradientUnits="objectBoundingBox">
      <stop offset="0" stop-color="#57cc4e"/>
      <stop offset="1" stop-color="#a1ed52"/>
    </linearGradient>
    <filter id="Ellipse_39" x="93" y="0" width="72" height="72" filterUnits="userSpaceOnUse">
      <feOffset dy="-3" input="SourceAlpha"/>
      <feGaussianBlur stdDeviation="5" result="blur"/>
      <feFlood flood-opacity="0.051"/>
      <feComposite operator="in" in2="blur"/>
      <feComposite in="SourceGraphic"/>
    </filter>
  </defs>
  <g id="Group_899" data-name="Group 899" transform="translate(-230 -1814)">
    <g id="Ellipse_38" data-name="Ellipse 38" transform="translate(230 1832)" fill="#fff" stroke="#0077cb" stroke-width="3">
      <circle cx="75" cy="75" r="75" stroke="none"/>
      <circle cx="75" cy="75" r="73.5" fill="none"/>
    </g>
    <g id="Group_884" data-name="Group 884">
      <g transform="matrix(1, 0, 0, 1, 230, 1814)" filter="url(#Ellipse_39)">
        <circle id="Ellipse_39-2" data-name="Ellipse 39" cx="21" cy="21" r="21" transform="translate(108 18)" fill="url(#linear-gradient)"/>
      </g>
      <path id="Icon_awesome-check" data-name="Icon awesome-check" d="M5.213,15.8.225,10.809a.767.767,0,0,1,0-1.085L1.31,8.639a.767.767,0,0,1,1.085,0L5.755,12l7.2-7.2a.767.767,0,0,1,1.085,0l1.085,1.085a.767.767,0,0,1,0,1.085L6.3,15.8A.767.767,0,0,1,5.213,15.8Z" transform="translate(351.126 1842.7)" fill="#fff"/>
    </g>
    <g id="check-list" transform="translate(281 1883)" opacity="0.5">
      <path id="Path_617" data-name="Path 617" d="M33.806,5.7h-11.3v16.81h-5.7a8.4,8.4,0,1,0-16.81,0v2.8H22.506v16.81h11.3v5.7H47.815v-14.1H33.806v5.6h-8.5V25.308h8.5v5.6H47.815V16.9H33.806v5.6h-8.5V8.5h8.5v5.6H47.815V0H33.806ZM37.6,38.326l1.811,1.811,4.613-4.613L46,37.505,39.41,44.1l-3.792-3.792Zm0-16.81,1.811,1.811,4.613-4.613L46,20.7,39.41,27.289,35.618,23.5Zm0-16.81L39.41,6.517,44.023,1.9,46,3.885,39.41,10.479,35.618,6.687Zm0,0"/>
      <path id="Path_618" data-name="Path 618" d="M53.4,35.2A4.2,4.2,0,1,1,49.2,31,4.2,4.2,0,0,1,53.4,35.2Zm0,0" transform="translate(-40.798 -28.105)"/>
    </g>
  </g>
</svg>
