<svg xmlns="http://www.w3.org/2000/svg" xmlns:xlink="http://www.w3.org/1999/xlink" width="30" height="24" viewBox="0 0 30 24">
  <defs>
    <linearGradient id="linear-gradient" x1="0.5" x2="0.5" y2="1" gradientUnits="objectBoundingBox">
      <stop offset="0" stop-color="#0077c8"/>
      <stop offset="1" stop-color="#60aadf"/>
    </linearGradient>
  </defs>
  <path id="Icon_material-confirmation-number" data-name="Icon material-confirmation-number" d="M33,15V9a3,3,0,0,0-3-3H6A2.986,2.986,0,0,0,3.015,9v6A3,3,0,0,1,3,21v6a3.009,3.009,0,0,0,3,3H30a3.009,3.009,0,0,0,3-3V21a3,3,0,0,1,0-6ZM19.5,26.25h-3v-3h3Zm0-6.75h-3v-3h3Zm0-6.75h-3v-3h3Z" transform="translate(-3 -6)" fill="url(#linear-gradient)"/>
</svg>
